<svg xmlns="http://www.w3.org/2000/svg" viewBox="0 0 229.52 512"><defs><style>.cls-1{fill:#c7cfe2;}</style></defs><title>資產 1</title><g id="圖層_2" data-name="圖層 2"><g id="Layer_1" data-name="Layer 1"><path class="cls-1" d="M229.52,256v-.54a17.66,17.66,0,0,0-6.35-13.56L176.55,203l-8-167.3a8.83,8.83,0,0,1,8.82-9.25h16.8A8.83,8.83,0,0,0,203,17.66V8.83A8.83,8.83,0,0,0,194.21,0H35.31a8.83,8.83,0,0,0-8.83,8.83v8.83h0a8.83,8.83,0,0,0,8.83,8.83H52.13a8.83,8.83,0,0,1,8.8,9.25L53,203h0L6.35,241.88A17.65,17.65,0,0,0,0,255.44v9.39H0a8.83,8.83,0,0,0,8.83,8.83h92.69v98.89q0,7,.7,14.05L114.76,512,127.3,386.59q.7-7,.7-14.05V291.31h0V273.65h92.69a8.83,8.83,0,0,0,8.83-8.83V256Z"/></g></g></svg>